{"asset":{"version":"2.0","generator":"Blockbench 4.9.4 glTF exporter"},"scenes":[{"nodes":[38],"name":"blockbench_export"}],"scene":0,"nodes":[{"rotation":[0,0,-0.7071067811865475,0.7071067811865476],"translation":[2.6875,0,0],"name":"L5","mesh":0},{"name":"L5","children":[0]},{"rotation":[0,0,-0.7071067811865475,0.7071067811865476],"translation":[0.5625,0,0],"name":"L4","mesh":1},{"name":"L4","children":[2]},{"rotation":[0,0,-0.7071067811865475,0.7071067811865476],"translation":[1.375,0,0],"name":"L3","mesh":2},{"name":"L3","children":[4]},{"name":"bone"},{"rotation":[0,0,-0.7071067811865475,0.7071067811865476],"translation":[0.5625,0,0],"name":"L2","mesh":3},{"name":"L2","children":[6,7]},{"rotation":[0,0,-0.7071067811865475,0.7071067811865476],"translation":[0.5625,0,0],"name":"L1","mesh":4},{"name":"L1","children":[9]},{"rotation":[0,0,0.7071067811865475,0.7071067811865476],"translation":[0.5625,0,0],"name":"L0","mesh":5},{"name":"L0","children":[11]},{"name":"LEFT","children":[1,3,5,8,10,12]},{"name":"bone"},{"name":"bone"},{"translation":[-0.5625,0,0],"name":"bone"},{"name":"bone"},{"name":"bone","children":[17]},{"rotation":[0,0,0.7071067811865475,0.7071067811865476],"translation":[-2.6875,0,0],"name":"R5","mesh":6},{"name":"R5","children":[19]},{"rotation":[0,0,0.7071067811865475,0.7071067811865476],"translation":[-0.5625,0,0],"name":"R4","mesh":7},{"name":"R4","children":[21]},{"rotation":[0,0,0.7071067811865475,0.7071067811865476],"translation":[-1.375,0,0],"name":"R3","mesh":8},{"name":"R3","children":[23]},{"rotation":[0,0,0.7071067811865475,0.7071067811865476],"translation":[-0.5625,0,0],"name":"R2","mesh":9},{"name":"R2","children":[25]},{"rotation":[0,0,0.7071067811865475,0.7071067811865476],"translation":[-0.5625,0,0],"name":"R1","mesh":10},{"name":"R1","children":[27]},{"rotation":[0,0,-0.7071067811865475,0.7071067811865476],"translation":[-0.5625,0,0],"name":"R0","mesh":11},{"name":"R0","children":[29]},{"name":"RIGHT","children":[14,15,16,18,20,22,24,26,28,30]},{"translation":[0,-0.875,0],"name":"H0","mesh":12},{"name":"H0","children":[32]},{"translation":[0,-0.875,0.03125],"name":"H1","mesh":13},{"name":"H1","children":[34]},{"name":"UP","children":[33,35]},{"translation":[0,0.875,0],"name":"Casco","children":[13,31,36]},{"children":[37]}],"bufferViews":[{"buffer":0,"byteOffset":0,"byteLength":7776,"target":34962,"byteStride":12},{"buffer":0,"byteOffset":7776,"byteLength":7776,"target":34962,"byteStride":12},{"buffer":0,"byteOffset":15552,"byteLength":5184,"target":34962,"byteStride":8},{"buffer":0,"byteOffset":20736,"byteLength":1872,"target":34963},{"buffer":0,"byteOffset":22608,"byteLength":14400,"target":34962,"byteStride":12},{"buffer":0,"byteOffset":37008,"byteLength":14400,"target":34962,"byteStride":12},{"buffer":0,"byteOffset":51408,"byteLength":9600,"target":34962,"byteStride":8},{"buffer":0,"byteOffset":61008,"byteLength":3456,"target":34963},{"buffer":0,"byteOffset":64464,"byteLength":3456,"target":34962,"byteStride":12},{"buffer":0,"byteOffset":67920,"byteLength":3456,"target":34962,"byteStride":12},{"buffer":0,"byteOffset":71376,"byteLength":2304,"target":34962,"byteStride":8},{"buffer":0,"byteOffset":73680,"byteLength":864,"target":34963},{"buffer":0,"byteOffset":74544,"byteLength":2880,"target":34962,"byteStride":12},{"buffer":0,"byteOffset":77424,"byteLength":2880,"target":34962,"byteStride":12},{"buffer":0,"byteOffset":80304,"byteLength":1920,"target":34962,"byteStride":8},{"buffer":0,"byteOffset":82224,"byteLength":576,"target":34963},{"buffer":0,"byteOffset":82800,"byteLength":7488,"target":34962,"byteStride":12},{"buffer":0,"byteOffset":90288,"byteLength":7488,"target":34962,"byteStride":12},{"buffer":0,"byteOffset":97776,"byteLength":4992,"target":34962,"byteStride":8},{"buffer":0,"byteOffset":102768,"byteLength":1728,"target":34963},{"buffer":0,"byteOffset":104496,"byteLength":9216,"target":34962,"byteStride":12},{"buffer":0,"byteOffset":113712,"byteLength":9216,"target":34962,"byteStride":12},{"buffer":0,"byteOffset":122928,"byteLength":6144,"target":34962,"byteStride":8},{"buffer":0,"byteOffset":129072,"byteLength":2304,"target":34963},{"buffer":0,"byteOffset":131376,"byteLength":7776,"target":34962,"byteStride":12},{"buffer":0,"byteOffset":139152,"byteLength":7776,"target":34962,"byteStride":12},{"buffer":0,"byteOffset":146928,"byteLength":5184,"target":34962,"byteStride":8},{"buffer":0,"byteOffset":152112,"byteLength":1872,"target":34963},{"buffer":0,"byteOffset":153984,"byteLength":14400,"target":34962,"byteStride":12},{"buffer":0,"byteOffset":168384,"byteLength":14400,"target":34962,"byteStride":12},{"buffer":0,"byteOffset":182784,"byteLength":9600,"target":34962,"byteStride":8},{"buffer":0,"byteOffset":192384,"byteLength":3456,"target":34963},{"buffer":0,"byteOffset":195840,"byteLength":3456,"target":34962,"byteStride":12},{"buffer":0,"byteOffset":199296,"byteLength":3456,"target":34962,"byteStride":12},{"buffer":0,"byteOffset":202752,"byteLength":2304,"target":34962,"byteStride":8},{"buffer":0,"byteOffset":205056,"byteLength":864,"target":34963},{"buffer":0,"byteOffset":205920,"byteLength":2880,"target":34962,"byteStride":12},{"buffer":0,"byteOffset":208800,"byteLength":2880,"target":34962,"byteStride":12},{"buffer":0,"byteOffset":211680,"byteLength":1920,"target":34962,"byteStride":8},{"buffer":0,"byteOffset":213600,"byteLength":576,"target":34963},{"buffer":0,"byteOffset":214176,"byteLength":7488,"target":34962,"byteStride":12},{"buffer":0,"byteOffset":221664,"byteLength":7488,"target":34962,"byteStride":12},{"buffer":0,"byteOffset":229152,"byteLength":4992,"target":34962,"byteStride":8},{"buffer":0,"byteOffset":234144,"byteLength":1728,"target":34963},{"buffer":0,"byteOffset":235872,"byteLength":9216,"target":34962,"byteStride":12},{"buffer":0,"byteOffset":245088,"byteLength":9216,"target":34962,"byteStride":12},{"buffer":0,"byteOffset":254304,"byteLength":6144,"target":34962,"byteStride":8},{"buffer":0,"byteOffset":260448,"byteLength":2304,"target":34963},{"buffer":0,"byteOffset":262752,"byteLength":1932,"target":34962,"byteStride":12},{"buffer":0,"byteOffset":264684,"byteLength":1932,"target":34962,"byteStride":12},{"buffer":0,"byteOffset":266616,"byteLength":1288,"target":34962,"byteStride":8},{"buffer":0,"byteOffset":267904,"byteLength":476,"target":34963},{"buffer":0,"byteOffset":268380,"byteLength":1632,"target":34962,"byteStride":12},{"buffer":0,"byteOffset":270012,"byteLength":1632,"target":34962,"byteStride":12},{"buffer":0,"byteOffset":271644,"byteLength":1088,"target":34962,"byteStride":8},{"buffer":0,"byteOffset":272732,"byteLength":396,"target":34963},{"buffer":0,"byteOffset":273128,"byteLength":4},{"buffer":0,"byteOffset":273132,"byteLength":12},{"buffer":0,"byteOffset":273144,"byteLength":8},{"buffer":0,"byteOffset":273152,"byteLength":24},{"buffer":0,"byteOffset":273176,"byteLength":8},{"buffer":0,"byteOffset":273184,"byteLength":24},{"buffer":0,"byteOffset":273208,"byteLength":8},{"buffer":0,"byteOffset":273216,"byteLength":24},{"buffer":0,"byteOffset":273240,"byteLength":8},{"buffer":0,"byteOffset":273248,"byteLength":24},{"buffer":0,"byteOffset":273272,"byteLength":8},{"buffer":0,"byteOffset":273280,"byteLength":24},{"buffer":0,"byteOffset":273304,"byteLength":4},{"buffer":0,"byteOffset":273308,"byteLength":12},{"buffer":0,"byteOffset":273320,"byteLength":8},{"buffer":0,"byteOffset":273328,"byteLength":24},{"buffer":0,"byteOffset":273352,"byteLength":8},{"buffer":0,"byteOffset":273360,"byteLength":24},{"buffer":0,"byteOffset":273384,"byteLength":8},{"buffer":0,"byteOffset":273392,"byteLength":24},{"buffer":0,"byteOffset":273416,"byteLength":8},{"buffer":0,"byteOffset":273424,"byteLength":24},{"buffer":0,"byteOffset":273448,"byteLength":8},{"buffer":0,"byteOffset":273456,"byteLength":24}],"buffers":[{"byteLength":273480,"uri":"data:application/octet-stream;base64,"}],"accessors":[{"bufferView":0,"componentType":5126,"count":648,"max":[0.9035295844078064,-0.7189164757728577,0.9035295844078064],"min":[-0.9035295844078064,-1.25,-0.9035295844078064],"type":"VEC3"},{"bufferView":1,"componentType":5126,"count":648,"max":[0.9687273502349854,0.9973215460777283,0.9687273502349854],"min":[-0.9687273502349854,-0.9721481204032898,-0.9687273502349854],"type":"VEC3"},{"bufferView":2,"componentType":5126,"count":648,"max":[0.9017059803009033,0.7906500101089478],"min":[0,0],"type":"VEC2"},{"bufferView":3,"componentType":5123,"count":936,"max":[647],"min":[0],"type":"SCALAR"},{"bufferView":4,"componentType":5126,"count":1200,"max":[0.8739351630210876,1.1875,0.8739351630210876],"min":[-0.8739351630210876,0.6875,-0.8739351630210876],"type":"VEC3"},{"bufferView":5,"componentType":5126,"count":1200,"max":[1,1,1],"min":[-1,-1,-1],"type":"VEC3"},{"bufferView":6,"componentType":5126,"count":1200,"max":[0.5850492119789124,0.4939853549003601],"min":[0,0],"type":"VEC2"},{"bufferView":7,"componentType":5123,"count":1728,"max":[1199],"min":[0],"type":"SCALAR"},{"bufferView":8,"componentType":5126,"count":288,"max":[0.8739351630210876,-0.03125,0.8739351630210876],"min":[-0.8739351630210876,-0.15625,-0.8739351630210876],"type":"VEC3"},{"bufferView":9,"componentType":5126,"count":288,"max":[1,0,1],"min":[-1,-0.4410870671272278,-1],"type":"VEC3"},{"bufferView":10,"componentType":5126,"count":288,"max":[0.6370156407356262,0.390625],"min":[0,0],"type":"VEC2"},{"bufferView":11,"componentType":5123,"count":432,"max":[287],"min":[0],"type":"SCALAR"},{"bufferView":12,"componentType":5126,"count":240,"max":[0.71875,0.75,0.71875],"min":[-0.71875,0.4375,-0.71875],"type":"VEC3"},{"bufferView":13,"componentType":5126,"count":240,"max":[1,0.9923723936080933,1],"min":[-1,-0.9830789566040039,-1],"type":"VEC3"},{"bufferView":14,"componentType":5126,"count":240,"max":[0.984375,0.296875],"min":[0.015625,0.015625],"type":"VEC2"},{"bufferView":15,"componentType":5123,"count":288,"max":[239],"min":[0],"type":"SCALAR"},{"bufferView":16,"componentType":5126,"count":624,"max":[0.9364351630210876,0.6875,0.9364351630210876],"min":[-0.9364351630210876,0.4375,-0.9364351630210876],"type":"VEC3"},{"bufferView":17,"componentType":5126,"count":624,"max":[1,1,1],"min":[-1,-1,-1],"type":"VEC3"},{"bufferView":18,"componentType":5126,"count":624,"max":[0.6078711152076721,0.4375],"min":[0.00013281250721774995,0],"type":"VEC2"},{"bufferView":19,"componentType":5123,"count":864,"max":[623],"min":[0],"type":"SCALAR"},{"bufferView":20,"componentType":5126,"count":768,"max":[1,-0.18480345606803894,1],"min":[-1,-0.44019654393196106,-1],"type":"VEC3"},{"bufferView":21,"componentType":5126,"count":768,"max":[0.7605811953544617,0.9803924560546875,0.7605811953544617],"min":[-0.7605811953544617,-0.9803924560546875,-0.7605811953544617],"type":"VEC3"},{"bufferView":22,"componentType":5126,"count":768,"max":[0.6380699872970581,0.4375],"min":[0.00032806897070258856,0],"type":"VEC2"},{"bufferView":23,"componentType":5123,"count":1152,"max":[767],"min":[0],"type":"SCALAR"},{"bufferView":24,"componentType":5126,"count":648,"max":[0.9035295844078064,-0.7189164757728577,0.9035295844078064],"min":[-0.9035295844078064,-1.25,-0.9035295844078064],"type":"VEC3"},{"bufferView":25,"componentType":5126,"count":648,"max":[0.9687273502349854,0.9973215460777283,0.9687273502349854],"min":[-0.9687273502349854,-0.9721481204032898,-0.9687273502349854],"type":"VEC3"},{"bufferView":26,"componentType":5126,"count":648,"max":[0.9017059803009033,0.7906500101089478],"min":[0,0],"type":"VEC2"},{"bufferView":27,"componentType":5123,"count":936,"max":[647],"min":[0],"type":"SCALAR"},{"bufferView":28,"componentType":5126,"count":1200,"max":[0.8739351630210876,1.1875,0.8739351630210876],"min":[-0.8739351630210876,0.6875,-0.8739351630210876],"type":"VEC3"},{"bufferView":29,"componentType":5126,"count":1200,"max":[1,1,1],"min":[-1,-1,-1],"type":"VEC3"},{"bufferView":30,"componentType":5126,"count":1200,"max":[0.5850492119789124,0.4939853549003601],"min":[0,0],"type":"VEC2"},{"bufferView":31,"componentType":5123,"count":1728,"max":[1199],"min":[0],"type":"SCALAR"},{"bufferView":32,"componentType":5126,"count":288,"max":[0.8739351630210876,-0.03125,0.8739351630210876],"min":[-0.8739351630210876,-0.15625,-0.8739351630210876],"type":"VEC3"},{"bufferView":33,"componentType":5126,"count":288,"max":[1,0,1],"min":[-1,-0.4410870671272278,-1],"type":"VEC3"},{"bufferView":34,"componentType":5126,"count":288,"max":[0.6370156407356262,0.390625],"min":[0,0],"type":"VEC2"},{"bufferView":35,"componentType":5123,"count":432,"max":[287],"min":[0],"type":"SCALAR"},{"bufferView":36,"componentType":5126,"count":240,"max":[0.71875,0.75,0.71875],"min":[-0.71875,0.4375,-0.71875],"type":"VEC3"},{"bufferView":37,"componentType":5126,"count":240,"max":[1,0.9923723936080933,1],"min":[-1,-0.9830789566040039,-1],"type":"VEC3"},{"bufferView":38,"componentType":5126,"count":240,"max":[0.984375,0.296875],"min":[0.015625,0.015625],"type":"VEC2"},{"bufferView":39,"componentType":5123,"count":288,"max":[239],"min":[0],"type":"SCALAR"},{"bufferView":40,"componentType":5126,"count":624,"max":[0.9364351630210876,0.6875,0.9364351630210876],"min":[-0.9364351630210876,0.4375,-0.9364351630210876],"type":"VEC3"},{"bufferView":41,"componentType":5126,"count":624,"max":[1,1,1],"min":[-1,-1,-1],"type":"VEC3"},{"bufferView":42,"componentType":5126,"count":624,"max":[0.6078711152076721,0.4375],"min":[0.00013281250721774995,0],"type":"VEC2"},{"bufferView":43,"componentType":5123,"count":864,"max":[623],"min":[0],"type":"SCALAR"},{"bufferView":44,"componentType":5126,"count":768,"max":[1,-0.18480345606803894,1],"min":[-1,-0.44019654393196106,-1],"type":"VEC3"},{"bufferView":45,"componentType":5126,"count":768,"max":[0.7605811953544617,0.9803924560546875,0.7605811953544617],"min":[-0.7605811953544617,-0.9803924560546875,-0.7605811953544617],"type":"VEC3"},{"bufferView":46,"componentType":5126,"count":768,"max":[0.6380699872970581,0.4375],"min":[0.00032806897070258856,0],"type":"VEC2"},{"bufferView":47,"componentType":5123,"count":1152,"max":[767],"min":[0],"type":"SCALAR"},{"bufferView":48,"componentType":5126,"count":161,"max":[1.25,2.625,0.28125],"min":[-1.25,1.6875,-0.21875],"type":"VEC3"},{"bufferView":49,"componentType":5126,"count":161,"max":[1,1,1],"min":[-1,-1,-1],"type":"VEC3"},{"bufferView":50,"componentType":5126,"count":161,"max":[0.53125,0.546875],"min":[0,0],"type":"VEC2"},{"bufferView":51,"componentType":5123,"count":237,"max":[160],"min":[0],"type":"SCALAR"},{"bufferView":52,"componentType":5126,"count":136,"max":[1.0625,3.3125,0.1875],"min":[-1.0625,2.625,-0.1875],"type":"VEC3"},{"bufferView":53,"componentType":5126,"count":136,"max":[1,1,1],"min":[-1,-1,-1],"type":"VEC3"},{"bufferView":54,"componentType":5126,"count":136,"max":[0.59375,0.578125],"min":[0,0],"type":"VEC2"},{"bufferView":55,"componentType":5123,"count":198,"max":[135],"min":[0],"type":"SCALAR"},{"bufferView":56,"componentType":5126,"count":1,"max":[0],"min":[0],"type":"SCALAR"},{"bufferView":57,"componentType":5126,"count":1,"max":[0,0.875,0],"min":[0,0.875,0],"type":"VEC3"},{"bufferView":58,"componentType":5126,"count":2,"max":[0.5],"min":[0],"type":"SCALAR"},{"bufferView":59,"componentType":5126,"count":2,"max":[0,0,0],"min":[-3.75,0,0],"type":"VEC3"},{"bufferView":60,"componentType":5126,"count":2,"max":[0.5],"min":[0],"type":"SCALAR"},{"bufferView":61,"componentType":5126,"count":2,"max":[0,0,0],"min":[-2.8125,0,0],"type":"VEC3"},{"bufferView":62,"componentType":5126,"count":2,"max":[0.5],"min":[0],"type":"SCALAR"},{"bufferView":63,"componentType":5126,"count":2,"max":[0,0,0],"min":[-1.875,0,0],"type":"VEC3"},{"bufferView":64,"componentType":5126,"count":2,"max":[0.5],"min":[0],"type":"SCALAR"},{"bufferView":65,"componentType":5126,"count":2,"max":[0,0,0],"min":[-0.9375,0,0],"type":"VEC3"},{"bufferView":66,"componentType":5126,"count":2,"max":[0.5],"min":[0],"type":"SCALAR"},{"bufferView":67,"componentType":5126,"count":2,"max":[1,0,0],"min":[0,0,0],"type":"VEC3"},{"bufferView":68,"componentType":5126,"count":1,"max":[0],"min":[0],"type":"SCALAR"},{"bufferView":69,"componentType":5126,"count":1,"max":[0,0.875,0],"min":[0,0.875,0],"type":"VEC3"},{"bufferView":70,"componentType":5126,"count":2,"max":[0.5],"min":[0],"type":"SCALAR"},{"bufferView":71,"componentType":5126,"count":2,"max":[0,0,0],"min":[-3.75,0,0],"type":"VEC3"},{"bufferView":72,"componentType":5126,"count":2,"max":[0.5],"min":[0],"type":"SCALAR"},{"bufferView":73,"componentType":5126,"count":2,"max":[0,0,0],"min":[-2.8125,0,0],"type":"VEC3"},{"bufferView":74,"componentType":5126,"count":2,"max":[0.5],"min":[0],"type":"SCALAR"},{"bufferView":75,"componentType":5126,"count":2,"max":[0,0,0],"min":[-1.875,0,0],"type":"VEC3"},{"bufferView":76,"componentType":5126,"count":2,"max":[0.5],"min":[0],"type":"SCALAR"},{"bufferView":77,"componentType":5126,"count":2,"max":[0,0,0],"min":[-0.9375,0,0],"type":"VEC3"},{"bufferView":78,"componentType":5126,"count":2,"max":[0.5],"min":[0],"type":"SCALAR"},{"bufferView":79,"componentType":5126,"count":2,"max":[1,0,0],"min":[0,0,0],"type":"VEC3"}],"materials":[{"pbrMetallicRoughness":{"metallicFactor":0,"roughnessFactor":1,"baseColorTexture":{"index":0}},"alphaMode":"MASK","alphaCutoff":0.05,"doubleSided":true},{"pbrMetallicRoughness":{"metallicFactor":0,"roughnessFactor":1,"baseColorTexture":{"index":1}},"alphaMode":"MASK","alphaCutoff":0.05,"doubleSided":true},{"pbrMetallicRoughness":{"metallicFactor":0,"roughnessFactor":1,"baseColorTexture":{"index":2}},"alphaMode":"MASK","alphaCutoff":0.05,"doubleSided":true},{"pbrMetallicRoughness":{"metallicFactor":0,"roughnessFactor":1,"baseColorTexture":{"index":3}},"alphaMode":"MASK","alphaCutoff":0.05,"doubleSided":true},{"pbrMetallicRoughness":{"metallicFactor":0,"roughnessFactor":1,"baseColorTexture":{"index":4}},"alphaMode":"MASK","alphaCutoff":0.05,"doubleSided":true},{"pbrMetallicRoughness":{"metallicFactor":0,"roughnessFactor":1,"baseColorTexture":{"index":5}},"alphaMode":"MASK","alphaCutoff":0.05,"doubleSided":true},{"pbrMetallicRoughness":{"metallicFactor":0,"roughnessFactor":1,"baseColorTexture":{"index":6}},"alphaMode":"MASK","alphaCutoff":0.05,"doubleSided":true},{"pbrMetallicRoughness":{"metallicFactor":0,"roughnessFactor":1,"baseColorTexture":{"index":7}},"alphaMode":"MASK","alphaCutoff":0.05,"doubleSided":true}],"textures":[{"sampler":0,"source":0},{"sampler":1,"source":1},{"sampler":2,"source":2},{"sampler":3,"source":3},{"sampler":4,"source":4},{"sampler":5,"source":5},{"sampler":6,"source":6},{"sampler":7,"source":7}],"samplers":[{"magFilter":9728,"minFilter":9728,"wrapS":33071,"wrapT":33071},{"magFilter":9728,"minFilter":9728,"wrapS":33071,"wrapT":33071},{"magFilter":9728,"minFilter":9728,"wrapS":33071,"wrapT":33071},{"magFilter":9728,"minFilter":9728,"wrapS":33071,"wrapT":33071},{"magFilter":9728,"minFilter":9728,"wrapS":33071,"wrapT":33071},{"magFilter":9728,"minFilter":9728,"wrapS":33071,"wrapT":33071},{"magFilter":9728,"minFilter":9728,"wrapS":33071,"wrapT":33071},{"magFilter":9728,"minFilter":9728,"wrapS":33071,"wrapT":33071}],"images":[{"mimeType":"image/png","uri":"data:image/png;base64,"},{"mimeType":"image/png","uri":"data:image/png;base64,"},{"mimeType":"image/png","uri":"data:image/png;base64,"},{"mimeType":"image/png","uri":"data:image/png;base64,"},{"mimeType":"image/png","uri":"data:image/png;base64,"},{"mimeType":"image/png","uri":"data:image/png;base64,"},{"mimeType":"image/png","uri":"data:image/png;base64,"},{"mimeType":"image/png","uri":"data:image/png;base64,"}],"meshes":[{"primitives":[{"mode":4,"attributes":{"POSITION":0,"NORMAL":1,"TEXCOORD_0":2},"indices":3,"material":0}]},{"primitives":[{"mode":4,"attributes":{"POSITION":4,"NORMAL":5,"TEXCOORD_0":6},"indices":7,"material":1}]},{"primitives":[{"mode":4,"attributes":{"POSITION":8,"NORMAL":9,"TEXCOORD_0":10},"indices":11,"material":2}]},{"primitives":[{"mode":4,"attributes":{"POSITION":12,"NORMAL":13,"TEXCOORD_0":14},"indices":15,"material":3}]},{"primitives":[{"mode":4,"attributes":{"POSITION":16,"NORMAL":17,"TEXCOORD_0":18},"indices":19,"material":4}]},{"primitives":[{"mode":4,"attributes":{"POSITION":20,"NORMAL":21,"TEXCOORD_0":22},"indices":23,"material":5}]},{"primitives":[{"mode":4,"attributes":{"POSITION":24,"NORMAL":25,"TEXCOORD_0":26},"indices":27,"material":0}]},{"primitives":[{"mode":4,"attributes":{"POSITION":28,"NORMAL":29,"TEXCOORD_0":30},"indices":31,"material":1}]},{"primitives":[{"mode":4,"attributes":{"POSITION":32,"NORMAL":33,"TEXCOORD_0":34},"indices":35,"material":2}]},{"primitives":[{"mode":4,"attributes":{"POSITION":36,"NORMAL":37,"TEXCOORD_0":38},"indices":39,"material":3}]},{"primitives":[{"mode":4,"attributes":{"POSITION":40,"NORMAL":41,"TEXCOORD_0":42},"indices":43,"material":4}]},{"primitives":[{"mode":4,"attributes":{"POSITION":44,"NORMAL":45,"TEXCOORD_0":46},"indices":47,"material":5}]},{"primitives":[{"mode":4,"attributes":{"POSITION":48,"NORMAL":49,"TEXCOORD_0":50},"indices":51,"material":6}]},{"primitives":[{"mode":4,"attributes":{"POSITION":52,"NORMAL":53,"TEXCOORD_0":54},"indices":55,"material":7}]}],"animations":[{"name":"OPEN","samplers":[{"input":56,"output":57,"interpolation":"LINEAR"},{"input":58,"output":59,"interpolation":"LINEAR"},{"input":60,"output":61,"interpolation":"LINEAR"},{"input":62,"output":63,"interpolation":"LINEAR"},{"input":64,"output":65,"interpolation":"LINEAR"},{"input":66,"output":67,"interpolation":"LINEAR"}],"channels":[{"sampler":0,"target":{"node":37,"path":"translation"}},{"sampler":1,"target":{"node":20,"path":"translation"}},{"sampler":2,"target":{"node":22,"path":"translation"}},{"sampler":3,"target":{"node":24,"path":"translation"}},{"sampler":4,"target":{"node":26,"path":"translation"}},{"sampler":5,"target":{"node":30,"path":"translation"}}]},{"name":"CLOSE","samplers":[{"input":68,"output":69,"interpolation":"LINEAR"},{"input":70,"output":71,"interpolation":"LINEAR"},{"input":72,"output":73,"interpolation":"LINEAR"},{"input":74,"output":75,"interpolation":"LINEAR"},{"input":76,"output":77,"interpolation":"LINEAR"},{"input":78,"output":79,"interpolation":"LINEAR"}],"channels":[{"sampler":0,"target":{"node":37,"path":"translation"}},{"sampler":1,"target":{"node":20,"path":"translation"}},{"sampler":2,"target":{"node":22,"path":"translation"}},{"sampler":3,"target":{"node":24,"path":"translation"}},{"sampler":4,"target":{"node":26,"path":"translation"}},{"sampler":5,"target":{"node":30,"path":"translation"}}]}]}