{"asset":{"version":"2.0","generator":"Blockbench 4.9.4 glTF exporter"},"scenes":[{"nodes":[5],"name":"blockbench_export"}],"scene":0,"nodes":[{"name":"Body","mesh":0},{"name":"Body","children":[0]},{"translation":[0,-0.875,0],"name":"Head","mesh":1},{"name":"Head","children":[2]},{"translation":[0,0.875,0],"name":"Worker","children":[1,3]},{"children":[4]}],"bufferViews":[{"buffer":0,"byteOffset":0,"byteLength":13248,"target":34962,"byteStride":12},{"buffer":0,"byteOffset":13248,"byteLength":13248,"target":34962,"byteStride":12},{"buffer":0,"byteOffset":26496,"byteLength":8832,"target":34962,"byteStride":8},{"buffer":0,"byteOffset":35328,"byteLength":3168,"target":34963},{"buffer":0,"byteOffset":38496,"byteLength":23784,"target":34962,"byteStride":12},{"buffer":0,"byteOffset":62280,"byteLength":23784,"target":34962,"byteStride":12},{"buffer":0,"byteOffset":86064,"byteLength":15856,"target":34962,"byteStride":8},{"buffer":0,"byteOffset":101920,"byteLength":5688,"target":34963}],"buffers":[{"byteLength":107608,"uri":"data:application/octet-stream;base64,"}],"accessors":[{"bufferView":0,"componentType":5126,"count":1104,"max":[0.625,-0.96875,0.625],"min":[-0.625,-2.15625,-0.625],"type":"VEC3"},{"bufferView":1,"componentType":5126,"count":1104,"max":[0.992231011390686,0.999794065952301,0.992231011390686],"min":[-0.992231011390686,-0.9905803203582764,-0.992231011390686],"type":"VEC3"},{"bufferView":2,"componentType":5126,"count":1104,"max":[0.8071948289871216,0.8580070734024048],"min":[0.004753287881612778,0.0004906058311462402],"type":"VEC2"},{"bufferView":3,"componentType":5123,"count":1584,"max":[1103],"min":[0],"type":"SCALAR"},{"bufferView":4,"componentType":5126,"count":1982,"max":[1.1557153463363647,1.90625,0.9792590737342834],"min":[-1.1557153463363647,-0.15625,-0.84375],"type":"VEC3"},{"bufferView":5,"componentType":5126,"count":1982,"max":[0.9993910193443298,0.9982625842094421,0.9999117851257324],"min":[-0.9993910193443298,-0.9985533356666565,-0.999970555305481],"type":"VEC3"},{"bufferView":6,"componentType":5126,"count":1982,"max":[0.6845965385437012,0.65625],"min":[0,0],"type":"VEC2"},{"bufferView":7,"componentType":5123,"count":2844,"max":[1981],"min":[0],"type":"SCALAR"}],"materials":[{"pbrMetallicRoughness":{"metallicFactor":0,"roughnessFactor":1,"baseColorTexture":{"index":0}},"alphaMode":"MASK","alphaCutoff":0.05,"doubleSided":true},{"pbrMetallicRoughness":{"metallicFactor":0,"roughnessFactor":1,"baseColorTexture":{"index":1}},"alphaMode":"MASK","alphaCutoff":0.05,"doubleSided":true}],"textures":[{"sampler":0,"source":0},{"sampler":1,"source":1}],"samplers":[{"magFilter":9728,"minFilter":9728,"wrapS":33071,"wrapT":33071},{"magFilter":9728,"minFilter":9728,"wrapS":33071,"wrapT":33071}],"images":[{"mimeType":"image/png","uri":"data:image/png;base64,"},{"mimeType":"image/png","uri":"data:image/png;base64,"}],"meshes":[{"primitives":[{"mode":4,"attributes":{"POSITION":0,"NORMAL":1,"TEXCOORD_0":2},"indices":3,"material":0}]},{"primitives":[{"mode":4,"attributes":{"POSITION":4,"NORMAL":5,"TEXCOORD_0":6},"indices":7,"material":1}]}]}